<?xml version="1.0" ?><!DOCTYPE svg  PUBLIC '-//W3C//DTD SVG 1.1//EN'  'http://www.w3.org/Graphics/SVG/1.1/DTD/svg11.dtd'><svg enable-background="new 0 0 512 512" height="512px" id="Layer_1" version="1.1" viewBox="0 0 512 512" width="512px" xml:space="preserve" xmlns="http://www.w3.org/2000/svg" xmlns:xlink="http://www.w3.org/1999/xlink"><path d="M256,495.104c-131.844,0-239.101-107.263-239.101-239.101C16.899,124.159,124.156,16.896,256,16.896  c131.838,0,239.101,107.263,239.101,239.106C495.101,387.841,387.838,495.104,256,495.104z M457.644,288.729  c-6.986-2.201-63.212-18.976-127.212-8.726c26.712,73.399,37.581,133.188,39.676,145.613  C415.925,394.628,448.537,345.553,457.644,288.729z M335.774,444.31c-3.037-17.919-14.899-80.362-43.568-154.868  c-0.45,0.148-0.899,0.293-1.345,0.449c-115.199,40.139-156.549,120.024-160.225,127.538c34.626,26.999,78.15,43.112,125.363,43.112  C284.287,460.541,311.25,454.753,335.774,444.31z M104.269,392.865c4.631-7.918,60.681-100.725,166.006-134.774  c2.662-0.856,5.351-1.663,8.051-2.425c-5.125-11.601-10.713-23.213-16.562-34.663c-101.987,30.525-200.956,29.25-209.888,29.068  c-0.062,2.069-0.106,4.15-0.106,6.244C51.769,308.766,71.649,356.659,104.269,392.865z M56.081,214.484  c9.132,0.119,93.275,0.481,188.807-24.882c-33.837-60.156-70.338-110.731-75.72-118.112  C112.037,98.441,69.324,151.109,56.081,214.484z M208.138,57.759c5.649,7.556,42.737,58.069,76.199,119.556  c72.626-27.219,103.369-68.538,107.044-73.775C355.312,71.547,307.888,52.078,256,52.078  C239.519,52.078,223.5,54.053,208.138,57.759z M414.088,127.165c-4.312,5.819-38.531,49.694-114.044,80.525  c4.756,9.725,9.306,19.619,13.55,29.575c1.507,3.538,2.969,7.05,4.399,10.544c67.957-8.544,135.476,5.149,142.206,6.568  C459.75,206.178,442.524,161.916,414.088,127.165z" fill="#1D1D1B"/></svg>