<svg id="Layer_1" data-name="Layer 1" xmlns="http://www.w3.org/2000/svg" viewBox="0 0 100 150"><title>SH Logo-01</title><path d="M77.25,3.15v59H52.9L63.1,77.78a7,7,0,0,0,5.82,3.14h8.33v35.4c.06.92.09,1.84.09,2.74s0,1.93-.09,2.87v24.92H90.34a7,7,0,0,0,7-6.95V10.09a6.94,6.94,0,0,0-6.94-6.94Z"/><path d="M22.75,104.41v6.24c0,14.87,2.58,19.61,10.34,19.61,6,0,9-5,9-14.22,0-9.48-2.37-15.08-12.27-28.22L20,73.17C7.67,54.64,3.57,44.73,3.57,32c0-19,11.42-31,29.52-31C46.66,1,56.57,8.76,59.37,21.9c1.08,5.38,1.08,13.91,1.08,25.76H47.71a7,7,0,0,1-6.94-6.81c-.09-4.42-.28-10-.57-12.07-.65-5.82-3.88-9-8.41-9-5.38,0-8.4,4.74-8.4,13.36,0,8.83.86,10.77,14.22,30.81L47.74,78.56c9.26,13.57,14.43,28.22,14.43,40.5,0,19.17-10.56,29.94-29.3,29.94C22.1,149,14.56,145.55,9,138c-4.74-6.46-6.25-12.49-6.25-25V111.3a6.94,6.94,0,0,1,7-6.91Z"/></svg>